<?xml version="1.0" encoding="UTF-8" standalone="no"?>
<svg
   width="200"
   height="200"
   viewBox="0 0 100 100"
   version="1.1"
   id="svg6"
   sodipodi:docname="logo.svg"
   inkscape:version="1.2.1 (9c6d41e410, 2022-07-14)"
   inkscape:export-filename="/home/doomsdayrs/Downloads/shosetsu-logo.png"
   inkscape:export-xdpi="122.88"
   inkscape:export-ydpi="122.88"
   xml:space="preserve"
   xmlns:inkscape="http://www.inkscape.org/namespaces/inkscape"
   xmlns:sodipodi="http://sodipodi.sourceforge.net/DTD/sodipodi-0.dtd"
   xmlns="http://www.w3.org/2000/svg"
   xmlns:svg="http://www.w3.org/2000/svg"><defs
     id="defs10" /><sodipodi:namedview
     id="namedview8"
     pagecolor="#505050"
     bordercolor="#eeeeee"
     borderopacity="1"
     inkscape:pageshadow="0"
     inkscape:pageopacity="0"
     inkscape:pagecheckerboard="0"
     showgrid="false"
     inkscape:zoom="2.9380287"
     inkscape:cx="53.437191"
     inkscape:cy="102.10928"
     inkscape:window-width="1920"
     inkscape:window-height="1011"
     inkscape:window-x="0"
     inkscape:window-y="0"
     inkscape:window-maximized="1"
     inkscape:current-layer="svg6"
     inkscape:snap-global="true"
     inkscape:snap-bbox="true"
     inkscape:bbox-paths="true"
     inkscape:bbox-nodes="true"
     inkscape:showpageshadow="0"
     inkscape:deskcolor="#505050" /><rect
     style="fill:#a80000;fill-opacity:1;stroke:none;stroke-width:0.486224"
     id="rect952"
     width="100"
     height="100"
     x="0"
     y="0"
     inkscape:label="background" /><path
     fill="#ffffff"
     d="M 75,33.910891 C 72.624435,31.875687 67.929864,28.685369 64.366515,26.485148 l -2.488687,2.69527 c 3.619909,2.310231 8.257919,5.665566 10.520362,7.810781 z M 49.321267,38.366337 H 62.386878 V 49.092409 H 49.321267 Z m 17.19457,10.726072 V 34.405941 H 49.321267 V 25 h -4.185521 v 9.405941 H 28.733031 v 3.960396 H 45.135746 V 49.092409 H 25 v 3.90539 H 45.135746 V 75 h 4.185521 V 52.997799 h 20.87104 c -0.678733,7.975798 -1.470588,11.441145 -2.545248,12.376238 -0.622173,0.49505 -1.244344,0.550055 -2.375565,0.550055 -1.357467,0 -4.920815,0 -8.484163,-0.330033 0.735294,1.10011 1.300905,2.69527 1.357465,3.905391 3.506788,0.165016 6.900453,0.220022 8.597286,0.110011 1.923077,-0.110011 3.223982,-0.49505 4.411764,-1.650166 1.640272,-1.650164 2.488688,-5.995599 3.337104,-16.941694 0.113122,-0.60506 0.169684,-1.925192 0.169684,-1.925192 z"
     stroke-width="4.18335"
     id="path4"
     inkscape:label="word" /><path
     id="XMLID_228_"
     d="m 31.407097,60.527902 1.325813,1.325813 1.104875,1.10475 c 0.366062,0.366062 0.366062,0.959625 -1.25e-4,1.325812 -0.365938,0.366063 -0.959688,0.366063 -1.325813,0 l -1.104625,-1.104812 -1.25e-4,6.2e-5 -1.325813,-1.325812 -1.325812,1.325812 1.325812,1.325813 1.104751,1.10475 c 0.366187,0.366125 0.366187,0.959687 0,1.325937 -0.366063,0.365938 -0.959688,0.366 -1.325813,-6.2e-5 l -1.10475,-1.104813 -1.325813,-1.325812 -1.987812,1.987812 c -0.885375,0.885375 -1.373062,2.0625 -1.372937,3.314563 -1.25e-4,1.252063 0.487437,2.429188 1.372687,3.314563 1.25e-4,-1.25e-4 1.25e-4,-1.25e-4 1.25e-4,-1.25e-4 0.885375,0.885373 2.0625,1.373061 3.314562,1.373 1.252063,0 2.429188,-0.487627 3.314563,-1.373 l 9.94275,-9.942751 0.220938,0.221 c 0.366187,0.366125 0.959687,0.366 1.325937,-6.2e-5 0.366124,-0.366063 0.366124,-0.959625 0,-1.325813 l -0.84975,-0.849687 c -0.01087,-0.012 -0.021,-0.02437 -0.0325,-0.03587 -0.01163,-0.0115 -0.02406,-0.02168 -0.03588,-0.0325 L 37.40828,55.922407 c -0.01112,-0.01225 -0.0215,-0.02481 -0.03331,-0.03669 -0.01163,-0.01156 -0.02394,-0.02175 -0.03588,-0.03256 L 36.48934,55.00347 c -0.366063,-0.366125 -0.959688,-0.366063 -1.325813,0 -0.366062,0.366062 -0.366062,0.959687 0,1.325812 l 0.220938,0.221063 -1.325688,1.325875 1.325813,1.325812 1.10475,1.104813 c 0.366187,0.366 0.366187,0.959625 0,1.325812 -0.366063,0.366125 -0.959688,0.366063 -1.325813,0 L 34.058777,60.527845 32.73284,59.20197"
     inkscape:label="vial"
     style="fill:#ffffff;fill-opacity:1;stroke-width:0.0625" /></svg>
